# xmcd
#
# Track frame offsets: 
#        150
#        19569
#        38985
#        53866
#        71863
#        88767
#        111267
#        125121
#        144144
#        163623
#        180655
#        199561
#        222028
#        238260
#        254621
#
# Disc length: 3632 seconds
#
# Revision: 0
# Processed by: cddbd v1.5.2PL0 Copyright (c) Steve Scherf et al.
# Submitted via: ExactAudioCopy v0.99pb3
#
DISCID=db0e2e0f
DTITLE=Hallelujah Country - Hallelujah Country
DYEAR=2007
DGENRE=Contemporary Christian
TTITLE0=Rock Of Ages
TTITLE1=In The Garden
TTITLE2=Shall We Gather At The River
TTITLE3=Peace In The Valley
TTITLE4=Church In The Wildwood
TTITLE5=Just A Closer Walk With Thee
TTITLE6=We Gather Together
TTITLE7=In The Sweet By And By
TTITLE8=The Old Rugged Cross
TTITLE9=Down To The River To Pray
TTITLE10=How Great Thou Art
TTITLE11=When They Ring Those Golden Bells
TTITLE12=He Leadeth Me
TTITLE13=This Is My Father's World
TTITLE14=You'll Never Walk Alone
EXTD=
EXTT0=
EXTT1=
EXTT2=
EXTT3=
EXTT4=
EXTT5=
EXTT6=
EXTT7=
EXTT8=
EXTT9=
EXTT10=
EXTT11=
EXTT12=
EXTT13=
EXTT14=
PLAYORDER=
